<svg width="378" height="84" viewBox="0 0 378 84" fill="none" xmlns="http://www.w3.org/2000/svg">
<rect width="378" height="84" rx="14" fill="#1E40AF"/>
<path d="M75.225 35.77L74.945 44.1C74.945 46.97 75.1783 49.385 75.645 51.345C76.135 53.305 77.0333 54.6583 78.34 55.405C76.73 56.4083 75.0967 56.91 73.44 56.91C70.5233 56.91 68.7267 54.5533 68.05 49.84H60.91C60.4667 51.3567 60.245 52.5233 60.245 53.34C60.245 54.1333 60.3383 54.775 60.525 55.265C58.7983 56.3617 57.2583 56.91 55.905 56.91C53.8283 56.91 52.79 55.65 52.79 53.13C52.79 51.87 53.175 50.2833 53.945 48.37C54.7383 46.4567 55.7767 44.2633 57.06 41.79C58.3667 39.3167 59.195 37.6833 59.545 36.89C59.2883 35.63 58.9967 34.3933 58.67 33.18C59.8833 32.34 61.05 31.71 62.17 31.29C63.3133 30.8467 64.5383 30.625 65.845 30.625C67.175 30.625 68.0967 30.9167 68.61 31.5C69.94 30.9167 71.0367 30.625 71.9 30.625C72.7633 30.625 73.405 30.765 73.825 31.045C74.245 31.325 74.5483 31.7333 74.735 32.27C75.0617 33.2033 75.225 34.37 75.225 35.77ZM68.19 36.575H67.07C64.97 40.635 63.4067 43.8317 62.38 46.165H67.805C67.805 43.6217 67.9333 40.425 68.19 36.575ZM88.368 48.335C88.228 49.175 88.158 49.8167 88.158 50.26C88.158 52.5233 88.508 54.215 89.208 55.335C87.808 56.385 86.3497 56.91 84.833 56.91C83.3164 56.91 82.2314 56.4783 81.578 55.615C80.9247 54.7283 80.598 53.4217 80.598 51.695C80.598 49.945 81.333 45.01 82.803 36.89L80.948 33.145C83.5847 31.4417 85.988 30.59 88.158 30.59C88.7647 30.59 89.4297 30.7067 90.153 30.94C90.8764 31.15 91.3897 31.395 91.693 31.675C93.4197 30.9983 95.018 30.66 96.488 30.66C98.6814 30.66 100.408 31.43 101.668 32.97C102.951 34.4867 103.593 36.33 103.593 38.5C103.593 41.1133 102.648 43.4467 100.758 45.5C99.848 46.5033 98.623 47.3083 97.083 47.915C95.543 48.5217 93.968 48.825 92.358 48.825C90.7714 48.825 89.4414 48.6617 88.368 48.335ZM89.033 44.345C89.3597 44.415 89.698 44.45 90.048 44.45C91.5414 44.45 92.8714 43.925 94.038 42.875C95.2047 41.825 95.788 40.53 95.788 38.99C95.788 37.9167 95.473 37.0067 94.843 36.26C94.2364 35.5133 93.373 35.14 92.253 35.14C91.7864 35.14 91.2497 35.2333 90.643 35.42C90.1764 38.6167 89.6397 41.5917 89.033 44.345ZM110.096 56.91C108.579 56.91 107.494 56.4783 106.841 55.615C106.188 54.7283 105.861 53.4217 105.861 51.695C105.861 49.945 106.596 45.01 108.066 36.89L106.211 33.145C108.848 31.4417 111.251 30.59 113.421 30.59C115.218 30.59 116.116 31.6867 116.116 33.88C116.116 34.6033 115.661 37.2983 114.751 41.965C113.864 46.6083 113.421 49.3733 113.421 50.26C113.421 52.5233 113.771 54.215 114.471 55.335C113.071 56.385 111.613 56.91 110.096 56.91ZM121.285 49.595C119.815 49.595 119.08 48.7433 119.08 47.04C119.08 45.8033 119.407 44.4733 120.06 43.05C120.55 43.2133 121.262 43.295 122.195 43.295C123.152 43.295 124.669 42.9217 126.745 42.175C128.845 41.4283 130.432 41.055 131.505 41.055C132.975 41.055 133.71 41.9067 133.71 43.61C133.71 44.8467 133.384 46.1767 132.73 47.6C132.24 47.4367 131.517 47.355 130.56 47.355C129.627 47.355 128.11 47.7283 126.01 48.475C123.934 49.2217 122.359 49.595 121.285 49.595ZM152.726 49.28L150.941 45.605C153.438 43.9483 155.69 43.12 157.696 43.12C159.376 43.12 160.216 44.065 160.216 45.955C160.216 46.4917 159.89 48.1367 159.236 50.89C158.606 53.62 158.291 55.7083 158.291 57.155C158.291 58.6017 158.606 59.675 159.236 60.375C157.93 61.3317 156.565 61.81 155.141 61.81C153.718 61.81 152.703 61.3433 152.096 60.41C151.513 59.4767 151.221 58.1117 151.221 56.315C149.961 56.6883 148.655 56.875 147.301 56.875C144.128 56.875 141.561 55.895 139.601 53.935C137.665 51.975 136.696 49.0817 136.696 45.255C136.696 43.6217 137.046 41.965 137.746 40.285C138.446 38.5817 139.438 37.0067 140.721 35.56C142.005 34.1133 143.673 32.935 145.726 32.025C147.803 31.0917 149.938 30.625 152.131 30.625C154.348 30.625 156.075 31.0333 157.311 31.85C158.571 32.6667 159.201 33.7983 159.201 35.245C159.201 36.6917 158.723 37.8233 157.766 38.64C156.833 39.4333 155.76 39.83 154.546 39.83C153.333 39.83 152.236 39.5733 151.256 39.06C150.3 38.5233 149.53 37.765 148.946 36.785C147.686 37.3917 146.601 38.5817 145.691 40.355C144.781 42.1283 144.326 43.9833 144.326 45.92C144.326 47.8567 144.7 49.315 145.446 50.295C146.216 51.2517 147.173 51.73 148.316 51.73C149.973 51.73 151.443 50.9133 152.726 49.28ZM172.525 55.3C171.429 55.6967 170.332 55.895 169.235 55.895C168.139 55.895 167.217 55.5683 166.47 54.915C165.724 54.2617 165.292 53.375 165.175 52.255C165.059 51.135 164.954 49.5133 164.86 47.39C164.767 45.2433 164.674 43.7267 164.58 42.84C164.277 39.8767 163.344 37.765 161.78 36.505C162.877 35.5017 164.254 35 165.91 35C166.82 35 167.614 35.245 168.29 35.735C168.967 36.2017 169.504 36.8317 169.9 37.625C170.32 38.395 170.659 39.3983 170.915 40.635C171.312 42.6883 171.51 45.465 171.51 48.965C171.51 49.8283 171.475 50.8433 171.405 52.01H173.435C175.839 45.5233 177.04 41.1017 177.04 38.745C177.04 37.9517 176.865 37.205 176.515 36.505C178.149 35.5017 179.572 35 180.785 35C183.049 35 184.18 36.3067 184.18 38.92C184.18 40.9967 183.224 44.6483 181.31 49.875C180.96 50.8317 180.762 51.3917 180.715 51.555C177.752 60.0017 173.54 64.225 168.08 64.225C166.424 64.225 165.059 63.8633 163.985 63.14C162.912 62.44 162.375 61.5067 162.375 60.34C162.375 59.1967 162.807 57.995 163.67 56.735C164.79 58.3217 166.19 59.115 167.87 59.115C168.827 59.115 169.714 58.8 170.53 58.17C171.37 57.54 172.035 56.5833 172.525 55.3ZM209.496 41.23L209.846 41.405C212.343 37.135 215.4 35 219.016 35C221.84 35 223.251 36.4117 223.251 39.235C223.251 40.4483 222.901 42.5017 222.201 45.395C221.525 48.2883 221.186 50.47 221.186 51.94C221.186 53.41 221.431 54.4833 221.921 55.16C220.685 56.3033 219.378 56.875 218.001 56.875C215.318 56.875 213.976 55.4283 213.976 52.535C213.976 51.4617 214.326 49.6417 215.026 47.075C215.726 44.5083 216.076 42.84 216.076 42.07C216.076 41.02 215.68 40.495 214.886 40.495C214.233 40.495 213.498 40.7867 212.681 41.37C211.888 41.93 211.118 42.7 210.371 43.68C209.648 44.6367 209.03 45.8617 208.516 47.355C208.026 48.825 207.781 50.33 207.781 51.87C207.781 53.3867 208.026 54.4833 208.516 55.16C207.28 56.3033 205.973 56.875 204.596 56.875C201.913 56.875 200.571 55.4283 200.571 52.535C200.571 51.4617 200.921 49.6417 201.621 47.075C202.321 44.5083 202.671 42.84 202.671 42.07C202.671 41.02 202.275 40.495 201.481 40.495C200.828 40.495 200.093 40.7867 199.276 41.37C198.483 41.93 197.713 42.7 196.966 43.68C196.243 44.6367 195.625 45.8617 195.111 47.355C194.621 48.825 194.376 50.33 194.376 51.87C194.376 53.3867 194.621 54.4833 195.111 55.16C193.875 56.3033 192.568 56.875 191.191 56.875C188.508 56.875 187.166 55.4283 187.166 52.535C187.166 51.6017 187.4 49.7933 187.866 47.11C188.356 44.4267 188.858 41.9767 189.371 39.76L187.551 36.96C189.861 35.6533 191.996 35 193.956 35C195.916 35 196.896 35.8867 196.896 37.66C196.896 38.8267 196.628 40.0167 196.091 41.23L196.441 41.405C198.938 37.135 201.995 35 205.611 35C206.918 35 207.945 35.3267 208.691 35.98C209.461 36.6333 209.846 37.6133 209.846 38.92C209.846 39.62 209.73 40.39 209.496 41.23ZM230.631 62.965C229.185 62.965 228.17 62.6033 227.586 61.88C227.026 61.18 226.746 60.1533 226.746 58.8C226.746 57.47 227.026 54.775 227.586 50.715C228.17 46.655 228.73 43.19 229.266 40.32L227.306 37.52C228.753 36.68 230.001 36.05 231.051 35.63C232.101 35.1867 233.14 34.965 234.166 34.965C235.846 34.965 236.686 36.0733 236.686 38.29C236.686 38.5933 236.64 39.2117 236.546 40.145L236.896 40.32C237.573 38.64 238.553 37.3333 239.836 36.4C241.12 35.4433 242.625 34.965 244.351 34.965C246.101 34.965 247.49 35.7583 248.516 37.345C249.543 38.9083 250.056 40.8567 250.056 43.19C250.056 46.3167 248.96 49.1633 246.766 51.73C245.693 52.99 244.258 54.0167 242.461 54.81C240.665 55.58 238.658 55.965 236.441 55.965C235.765 55.965 234.878 55.9067 233.781 55.79C233.711 56.6067 233.676 57.365 233.676 58.065C233.676 59.5583 234.038 60.62 234.761 61.25C233.455 62.3933 232.078 62.965 230.631 62.965ZM235.216 48.475L234.411 52.535C237.235 52.465 239.486 51.5433 241.166 49.77C242.87 47.9733 243.721 46.0133 243.721 43.89C243.721 42.7933 243.5 41.9183 243.056 41.265C242.636 40.5883 242.018 40.25 241.201 40.25C238.308 40.25 236.313 42.9917 235.216 48.475ZM266.563 51.695L266.213 51.52C265.583 53.2 264.673 54.5183 263.483 55.475C262.316 56.4083 261.01 56.875 259.563 56.875C257.58 56.875 255.993 56.1283 254.803 54.635C253.613 53.1417 253.018 51.1467 253.018 48.65C253.018 44.7767 254.313 41.5333 256.903 38.92C259.516 36.3067 262.76 35 266.633 35C267.636 35 268.558 35.0933 269.398 35.28C269.538 35.9333 269.62 36.505 269.643 36.995C270.81 36.2483 272.011 35.875 273.248 35.875C274.951 35.875 275.803 36.7967 275.803 38.64C275.803 39.2933 275.43 41.265 274.683 44.555C273.96 47.845 273.598 50.2833 273.598 51.87C273.598 53.4567 273.96 54.5533 274.683 55.16C273.376 56.3033 272.011 56.875 270.588 56.875C269.188 56.875 268.161 56.455 267.508 55.615C266.878 54.775 266.563 53.4683 266.563 51.695ZM259.598 46.935C259.598 48.0783 259.831 48.965 260.298 49.595C260.788 50.2017 261.476 50.505 262.363 50.505C263.25 50.505 264.125 50.1783 264.988 49.525C265.851 48.8717 266.575 47.9733 267.158 46.83C267.368 44.4733 267.823 41.685 268.523 38.465C266.166 38.465 264.09 39.3167 262.293 41.02C260.496 42.7233 259.598 44.695 259.598 46.935ZM290.48 39.655C289.616 39.9117 288.928 40.285 288.415 40.775C287.901 41.2417 287.446 41.9183 287.05 42.805C290.993 43.3883 293.77 44.2283 295.38 45.325C296.99 46.4217 297.795 47.985 297.795 50.015C297.795 51.2983 297.433 52.4183 296.71 53.375C295.986 54.3083 295.076 55.02 293.98 55.51C291.833 56.42 289.721 56.875 287.645 56.875C281.741 56.875 278.79 55.6033 278.79 53.06C278.79 51.7767 279.361 50.4933 280.505 49.21C281.088 50.0267 281.963 50.7267 283.13 51.31C284.32 51.8933 285.475 52.185 286.595 52.185C288.531 52.185 289.698 51.3333 290.095 49.63C286.548 49.21 283.981 48.4167 282.395 47.25C280.808 46.0833 280.015 44.4383 280.015 42.315C280.015 40.635 280.563 39.2233 281.66 38.08C282.78 36.9367 284.156 36.1433 285.79 35.7C287.446 35.2333 289.301 35 291.355 35C293.431 35 295.135 35.3967 296.465 36.19C297.818 36.96 298.495 37.905 298.495 39.025C298.495 40.145 298.098 41.0083 297.305 41.615C296.535 42.2217 295.683 42.525 294.75 42.525C293.84 42.525 293 42.28 292.23 41.79C291.483 41.3 290.9 40.5883 290.48 39.655ZM312.97 39.655C312.107 39.9117 311.418 40.285 310.905 40.775C310.392 41.2417 309.937 41.9183 309.54 42.805C313.483 43.3883 316.26 44.2283 317.87 45.325C319.48 46.4217 320.285 47.985 320.285 50.015C320.285 51.2983 319.923 52.4183 319.2 53.375C318.477 54.3083 317.567 55.02 316.47 55.51C314.323 56.42 312.212 56.875 310.135 56.875C304.232 56.875 301.28 55.6033 301.28 53.06C301.28 51.7767 301.852 50.4933 302.995 49.21C303.578 50.0267 304.453 50.7267 305.62 51.31C306.81 51.8933 307.965 52.185 309.085 52.185C311.022 52.185 312.188 51.3333 312.585 49.63C309.038 49.21 306.472 48.4167 304.885 47.25C303.298 46.0833 302.505 44.4383 302.505 42.315C302.505 40.635 303.053 39.2233 304.15 38.08C305.27 36.9367 306.647 36.1433 308.28 35.7C309.937 35.2333 311.792 35 313.845 35C315.922 35 317.625 35.3967 318.955 36.19C320.308 36.96 320.985 37.905 320.985 39.025C320.985 40.145 320.588 41.0083 319.795 41.615C319.025 42.2217 318.173 42.525 317.24 42.525C316.33 42.525 315.49 42.28 314.72 41.79C313.973 41.3 313.39 40.5883 312.97 39.655Z" fill="white"/>
</svg>
